<svg xmlns="http://www.w3.org/2000/svg" viewBox="0 0 540 166">
  <g fill="none" fill-rule="evenodd">
    <path fill="#191847" d="M194.8652 27.3578C196.5242 19.7118 197.3532 15.8848 199.0122 8.2178 199.3822 6.5108 198.2252 5.1378 196.4882 5.2238 168.0542 6.7178 139.6722 8.6148 111.2932 10.9118 109.5572 11.0578 107.7772 12.5888 107.4082 14.2508 105.7522 21.7128 104.9242 25.4408 103.2672 32.8808 102.8992 34.5398 104.0552 35.8238 105.7912 35.6908 116.4112 34.8758 121.7232 34.4968 132.3492 33.7948 133.8182 33.6978 134.7642 34.7778 134.4522 36.1918 132.4552 45.2418 131.4562 49.7588 129.4582 58.7788 123.7572 59.1058 120.9062 59.2778 115.2062 59.6388 112.2592 59.8248 109.3612 62.2628 108.7352 65.0738 108.1082 67.8858 109.9902 70.0128 112.9372 69.8358 118.6372 69.4918 121.4872 69.3288 127.1882 69.0188 133.7352 68.6628 137.0092 68.4968 143.5552 68.1828 145.7682 68.0778 147.1792 69.7238 146.7102 71.8538 146.2402 73.9848 144.0652 75.7898 141.8532 75.8898 135.3052 76.1868 132.0322 76.3468 125.4862 76.6888 122.9222 88.2388 121.6392 94.0028 119.0752 105.5028 118.7062 107.1548 119.8602 108.4918 121.5952 108.4208 129.7112 108.0858 133.7692 107.9338 141.8872 107.6658 143.6222 107.6078 145.4032 106.1518 145.7722 104.4858 150.9202 81.2028 156.0482 57.9178 161.1572 34.6268 161.4692 33.2008 162.9272 31.9688 164.3962 31.8908 175.0272 31.3298 180.3442 31.0778 190.9792 30.6308 192.7162 30.5578 194.4972 29.0588 194.8652 27.3578M55.4609 51.8696C44.0219 49.0846 39.6319 47.5336 40.5099 43.6596 41.2459 40.4096 45.6069 36.6406 54.6689 35.7376 63.4649 34.8606 67.7589 38.2336 68.3469 42.1906 68.6659 44.3456 69.5799 45.4116 72.1139 45.1876 79.5259 44.5366 83.2329 44.2236 90.6489 43.6276 92.5189 43.4766 94.6639 41.5516 94.9119 39.7966 97.8759 18.8376 76.1859 12.2136 59.0359 14.0276 49.3579 15.0526 40.3679 17.9786 32.8379 22.3096 23.1619 23.4236 18.3259 24.0046 8.6579 25.2146 5.7199 25.5816 2.8299 28.1026 2.2049 30.8356 1.5799 33.5676 3.4559 35.4846 6.3949 35.1286 18.6049 33.6376 24.7129 32.9316 36.9349 31.5946 39.1419 31.3516 40.5509 32.8396 40.0819 34.9116 39.6119 36.9836 37.4419 38.8506 35.2359 39.0886 26.7999 39.9916 22.5839 40.4616 14.1529 41.4376 13.0239 43.7716 12.0979 46.2346 11.5629 48.7406 7.5559 67.5226 27.9259 74.0586 42.3619 77.4316 53.8589 80.1176 58.6129 82.4476 57.6789 86.5756 57.0269 89.4546 53.1179 92.8056 43.1259 93.6176 33.8019 94.3766 29.0539 91.8166 27.8949 88.8326 26.9479 86.3986 26.3649 85.8126 23.3029 86.0986 16.1129 86.7696 12.5199 87.1196 5.3339 87.8436 3.4709 88.0316 1.2859 89.9766 1.0829 91.6406-1.2981 111.1286 23.4239 116.7796 38.7609 115.0816 57.0349 113.0576 81.6659 103.0096 86.6549 83.1266 91.2749 64.7146 69.1639 55.2056 55.4609 51.8696M536.7744 12.0756C528.6314 11.3436 524.5584 10.9956 516.4104 10.3306 514.5454 10.1786 512.4274 11.3166 511.1564 12.9616 498.2164 31.5746 485.2294 50.1526 472.1534 68.6706 471.3924 69.7536 470.0584 69.6396 469.7534 68.4696 464.5184 48.6536 459.2614 28.8436 453.9814 9.0396 453.3874 7.2936 451.7764 5.9236 449.9094 5.8216 441.7454 5.3806 437.6634 5.1776 429.4964 4.8036 427.7604 4.7226 425.9804 6.1956 425.6124 8.0136 420.7404 32.0116 415.8504 56.0056 410.9434 79.9966 405.0864 79.6156 402.1584 79.4346 396.2994 79.0886 393.3504 78.9146 390.4514 81.2476 389.8244 84.2906 389.1974 87.3316 391.0804 89.9376 394.0304 90.1216 399.8874 90.4846 402.8164 90.6756 408.6744 91.0736 415.0654 91.5086 418.2604 91.7356 424.6494 92.2116 426.8614 92.3776 428.2714 94.3836 427.8014 96.6866 427.3324 98.9906 425.1594 100.7166 422.9474 100.5466 416.5584 100.0546 413.3634 99.8206 406.9714 99.3716 406.1214 103.5156 405.6954 105.5886 404.8434 109.7296 404.4744 111.5226 405.6314 113.1506 407.3684 113.2806 415.4314 113.8886 419.4614 114.2086 427.5224 114.8826 429.2574 115.0286 431.0364 113.6236 431.4044 111.8156 434.7804 95.2646 438.1454 78.7116 441.5004 62.1566 441.6424 61.4556 442.6324 61.2416 442.7574 61.9606 446.3944 75.7626 450.0074 89.5706 453.6194 103.3786 454.2114 105.1426 455.8254 106.5726 457.6924 106.7456 462.1204 107.1536 464.3334 107.3616 468.7584 107.7906 470.6254 107.9716 472.7474 106.8886 474.0194 105.2906 483.0564 92.4836 492.0544 79.6506 501.0144 66.7916 501.4224 66.1046 502.2984 66.4776 502.1564 67.1896 498.8064 84.0186 495.4464 100.8466 492.0764 117.6716 491.7084 119.5086 492.8624 121.2226 494.5944 121.4166 502.6414 122.3116 506.6654 122.7756 514.7074 123.7366 516.4384 123.9446 518.2124 122.5546 518.5804 120.7046 525.5214 85.7526 532.4224 50.7916 539.2894 15.8246 539.6564 13.9506 538.5054 12.2316 536.7744 12.0756"/>
    <path fill="#191847" d="M371.1103 54.8832C368.7103 56.0042 365.8113 56.6082 362.3473 56.4772 354.2803 56.1732 350.2463 56.0382 342.1753 55.8012 340.7063 55.7592 339.7583 54.5002 340.0713 53.0012 341.9803 43.8542 342.9333 39.2732 344.8423 30.0972 345.1543 28.5952 346.6123 27.3902 348.0833 27.4212 356.1523 27.5952 360.1863 27.6972 368.2543 27.9392 375.5953 28.1562 379.1803 31.2362 380.1533 35.8212 375.2883 35.6402 372.8553 35.5552 367.9893 35.3992 365.0383 35.3032 362.1383 37.6892 361.5103 40.7162 360.8833 43.7442 362.7663 46.2752 365.7173 46.3802 370.9173 46.5642 373.5163 46.6632 378.7153 46.8742 385.7703 47.1612 389.2973 47.3182 396.3513 47.6542 398.5633 47.7602 399.9753 49.7102 399.5063 52.0032 399.0353 54.2962 396.8613 56.0622 394.6483 55.9492 385.2353 55.4782 380.5273 55.2642 371.1103 54.8832M378.9993 80.9022C378.4523 79.6222 379.0603 77.9892 380.5373 77.3732 394.0363 71.0922 402.7813 57.9652 405.7933 43.7792 410.1853 23.0922 398.2103 1.6172 374.8893 2.9132 358.9963 2.5392 343.0963 2.3222 327.1983 2.2602 325.4603 2.2542 323.6773 3.7462 323.3083 5.5132 316.4153 38.4802 309.4843 71.4362 302.5153 104.3872 302.1453 106.1302 303.3033 107.6532 305.0423 107.7112 313.1143 107.9822 317.1493 108.1332 325.2203 108.4712 326.9593 108.5442 328.7393 107.1202 329.1083 105.3642 330.9833 96.4432 331.9203 91.9762 333.7953 83.0282 334.1073 81.5352 335.5653 80.3562 337.0363 80.4092 340.3483 80.5292 342.0063 80.5922 345.3183 80.7232 346.9213 80.7872 348.4883 81.6742 349.1393 83.0752 353.6943 92.7722 355.9713 97.6462 360.5263 107.4422 361.3883 109.1452 363.0313 110.3412 365.0333 110.4562 375.2383 111.0502 380.3403 111.3732 390.5433 112.0712 391.8783 112.1622 392.9923 110.7042 392.4463 109.4112 387.0673 97.9392 384.3783 92.2372 378.9993 80.9022M240.4618 82.9018C225.4308 83.1898 214.6508 69.9198 218.1518 55.2928 221.9168 39.5638 236.3048 27.3928 252.5068 26.6998 267.9538 26.0408 278.2768 39.9338 274.8188 54.7488 271.0988 70.6908 256.8268 82.5888 240.4618 82.9018M257.9898.9688C227.6188 2.0838 197.8028 26.4628 191.1628 56.0128 189.2028 64.7338 189.7618 73.0098 192.2188 80.2148 188.2188 80.3048 186.2188 80.3548 182.2188 80.4608 179.2678 80.5388 176.3668 82.9288 175.7388 85.7918 175.1118 88.6528 176.9958 90.9098 179.9468 90.8388 186.9758 90.6738 190.4888 90.6048 197.5188 90.4888 202.7478 90.4028 205.3628 90.3678 210.5928 90.3108 212.8078 90.2848 214.2208 92.0278 213.7498 94.1968 213.2788 96.3648 211.1038 98.1338 208.8898 98.1538 207.2688 98.1688 206.4578 98.1758 204.8358 98.1928 212.6048 104.4878 223.0378 108.3188 234.9798 108.3388 265.6858 108.3888 295.1738 85.1748 301.8158 54.9488 308.1168 26.2718 287.8068-.1252 257.9898.9688"/>
    <path fill="#89C5CC" d="M90.7226 165.1059C90.6196 165.3719 90.3336 165.5569 90.0466 165.5569L86.9716 165.5569C86.6836 165.5569 86.3976 165.3719 86.2946 165.1059L80.2056 150.0159C80.1226 149.8119 80.2676 149.5659 80.5136 149.5659L83.9976 149.5659C84.2856 149.5659 84.5516 149.7509 84.6546 150.0159L88.3666 159.9189C88.4066 160.0619 88.6116 160.0619 88.6526 159.9189L92.3836 150.0159C92.4866 149.7509 92.7526 149.5659 93.0386 149.5659L96.5246 149.5659C96.7706 149.5659 96.9136 149.8119 96.8316 150.0159L90.7226 165.1059zM104.8915 165.5571C104.6255 165.5571 104.3995 165.3311 104.3995 165.0641L104.3995 150.0581C104.3995 149.7911 104.6255 149.5661 104.8915 149.5661L116.1885 149.5661C116.4545 149.5661 116.6795 149.7911 116.6795 150.0581L116.6795 153.0501C116.6795 153.3171 116.4545 153.5421 116.1885 153.5421L108.9095 153.5421C108.6845 153.5421 108.4985 153.7281 108.4985 153.9531L108.4985 155.4281C108.4985 155.6551 108.6845 155.8381 108.9095 155.8381L114.7325 155.8381C114.9985 155.8381 115.2245 156.0651 115.2245 156.3301L115.2245 159.0571C115.2245 159.3241 114.9985 159.5501 114.7325 159.5501L108.9095 159.5501C108.6845 159.5501 108.4985 159.7351 108.4985 159.9591L108.4985 161.1891C108.4985 161.4151 108.6845 161.6001 108.9095 161.6001L116.1885 161.6001C116.4545 161.6001 116.6795 161.8261 116.6795 162.0911L116.6795 165.0641C116.6795 165.3311 116.4545 165.5571 116.1885 165.5571L104.8915 165.5571zM131.8329 150.058C131.8329 149.791 132.0589 149.566 132.3239 149.566L135.4209 149.566C135.6869 149.566 135.9119 149.791 135.9119 150.058L135.9119 159.632C135.9119 163.917 133.1449 165.864 129.8239 165.864 126.6249 165.864 123.6929 163.917 123.6929 159.632L123.6929 158.73C123.6929 158.462 123.9189 158.238 124.1859 158.238L127.3019 158.238C127.5679 158.238 127.7929 158.462 127.7929 158.73L127.7929 159.57C127.7929 161.477 128.7579 161.908 129.8239 161.908 131.0129 161.908 131.8329 161.477 131.8329 159.57L131.8329 150.058zM151.9667 153.2963L148.8707 153.2963C148.6457 153.2963 148.4597 153.4823 148.4597 153.7063L148.4597 157.1503C148.4597 157.3763 148.6457 157.5623 148.8707 157.5623L151.9667 157.5623C153.6067 157.5623 154.2227 156.5573 154.2227 155.4493 154.2227 154.2193 153.6067 153.2963 151.9667 153.2963L151.9667 153.2963zM144.3817 150.0583C144.3817 149.7913 144.6067 149.5663 144.8727 149.5663L152.1917 149.5663C156.2927 149.5663 158.1787 152.2313 158.1787 155.4083 158.1787 157.5203 157.2977 159.4883 155.3907 160.5333 155.1857 160.6363 155.1447 160.8823 155.2667 161.0673L158.1977 165.1473C158.3217 165.3313 158.1977 165.5573 157.9927 165.5573L154.0777 165.5573C153.7717 165.5573 153.4837 165.3933 153.2987 165.1473L150.7987 161.6003C150.6547 161.3953 150.3887 161.2723 150.1427 161.2723L148.8707 161.2723C148.6457 161.2723 148.4597 161.4563 148.4597 161.6823L148.4597 165.0643C148.4597 165.3313 148.2357 165.5573 147.9687 165.5573L144.8727 165.5573C144.6067 165.5573 144.3817 165.3313 144.3817 165.0643L144.3817 150.0583zM176.6327 150.058C176.6327 149.791 176.8577 149.566 177.1237 149.566L180.2197 149.566C180.4867 149.566 180.7107 149.791 180.7107 150.058L180.7107 158.565C180.7107 162.686 178.1277 165.864 173.3527 165.864 168.5547 165.864 166.0117 162.686 166.0117 158.565L166.0117 150.058C166.0117 149.791 166.2377 149.566 166.5047 149.566L169.6207 149.566C169.8867 149.566 170.1117 149.791 170.1117 150.058L170.1117 158.32C170.1117 160.636 171.2197 161.908 173.3527 161.908 175.5037 161.908 176.6327 160.636 176.6327 158.32L176.6327 150.058zM196.2128 153.5424L193.6088 153.5424C193.3838 153.5424 193.1978 153.7284 193.1978 153.9524L193.1978 161.1884C193.1978 161.4154 193.3838 161.6004 193.6088 161.6004L196.2128 161.6004C198.6508 161.6004 199.9438 159.9594 199.9438 157.5624 199.9438 155.1624 198.6508 153.5424 196.2128 153.5424L196.2128 153.5424zM189.5908 165.5574C189.3238 165.5574 189.0988 165.3314 189.0988 165.0634L189.0988 150.0584C189.0988 149.7914 189.3238 149.5654 189.5908 149.5654L196.5198 149.5654C201.5228 149.5654 204.0848 153.2144 204.0848 157.5624 204.0848 161.9284 201.5228 165.5574 196.5198 165.5574L189.5908 165.5574zM211.4062 161.3334C211.3862 161.0464 211.6522 160.7594 211.9392 160.7594L214.7082 160.7594C215.1782 160.7594 215.2812 160.8614 215.5272 161.2934 215.8152 161.8254 216.6542 162.3174 218.0912 162.3174 219.6282 162.3174 220.1202 161.8054 220.1202 161.3334 220.1202 160.6564 219.3202 160.2474 217.3932 159.5914 214.8512 158.7504 211.5092 157.5204 211.5092 154.2194 211.5092 151.1644 214.1132 149.2584 217.7612 149.2584 221.4932 149.2584 224.0972 151.2064 224.3022 154.0754 224.3222 154.3624 224.0552 154.6494 223.7682 154.6494L220.9202 154.6494C220.5292 154.6494 220.3452 154.4654 220.2222 154.0964 219.9762 153.4204 219.1972 152.8044 217.8442 152.8044 216.4502 152.8044 215.8962 153.3574 215.8962 153.8914 215.8962 154.5264 216.6352 154.8544 218.5422 155.5114 220.7562 156.2894 224.5272 157.6024 224.5272 161.1074 224.5272 164.2244 221.8222 165.8634 218.1722 165.8634 214.5442 165.8634 211.6932 164.2644 211.4062 161.3334M232.5048 150.058C232.5048 149.791 232.7298 149.566 232.9958 149.566L236.1118 149.566C236.3788 149.566 236.6048 149.791 236.6048 150.058L236.6048 165.064C236.6048 165.331 236.3788 165.557 236.1118 165.557L232.9958 165.557C232.7298 165.557 232.5048 165.331 232.5048 165.064L232.5048 150.058zM252.9862 159.6322C252.7192 159.6322 252.4942 159.4052 252.4942 159.1402L252.4942 156.7202C252.4942 156.4542 252.7192 156.2282 252.9862 156.2282L259.7112 156.2282C259.9772 156.2282 260.2032 156.4542 260.2032 156.7202L260.2032 165.0642C260.2032 165.3312 259.9772 165.5572 259.7112 165.5572L257.4762 165.5572C257.2092 165.5572 256.9842 165.3312 256.9842 165.0642L256.9842 164.4692C256.9842 164.3472 256.8202 164.2852 256.7382 164.3882 255.8972 165.3522 254.4222 165.8632 252.9452 165.8632 248.3122 165.8632 244.4582 162.1322 244.4582 157.5622 244.4582 152.9892 248.3122 149.2582 252.9452 149.2582 255.5082 149.2582 257.8452 150.4262 259.4032 152.2102 259.5672 152.4152 259.5262 152.7232 259.3212 152.8662L256.7992 154.5682C256.5532 154.7332 256.2662 154.7112 256.0412 154.4862 255.2622 153.7062 254.1552 153.2142 252.9452 153.2142 250.5262 153.2142 248.5992 155.1422 248.5992 157.5622 248.5992 159.9812 250.5262 161.9072 252.9452 161.9072 254.2982 161.9072 255.4872 161.2512 256.2462 160.2472 256.3062 160.1642 256.3692 160.0002 256.3692 159.8992L256.3692 159.8372C256.3692 159.7352 256.2662 159.6322 256.1652 159.6322L252.9862 159.6322zM267.6474 153.5424C267.3804 153.5424 267.1544 153.3164 267.1544 153.0504L267.1544 150.0584C267.1544 149.7914 267.3804 149.5654 267.6474 149.5654L280.7264 149.5654C280.9934 149.5654 281.2184 149.7914 281.2184 150.0584L281.2184 153.0504C281.2184 153.3164 280.9934 153.5424 280.7264 153.5424L276.6464 153.5424C276.4214 153.5424 276.2374 153.7284 276.2374 153.9524L276.2374 165.0634C276.2374 165.3314 276.0114 165.5574 275.7444 165.5574L272.6284 165.5574C272.3624 165.5574 272.1364 165.3314 272.1364 165.0634L272.1364 153.9524C272.1364 153.7284 271.9524 153.5424 271.7264 153.5424L267.6474 153.5424zM300.5956 165.5571C300.3286 165.5571 300.1046 165.3311 300.1046 165.0641L300.1046 150.0581C300.1046 149.7911 300.3286 149.5661 300.5956 149.5661L311.4816 149.5661C311.7476 149.5661 311.9746 149.7911 311.9746 150.0581L311.9746 153.0501C311.9746 153.3171 311.7476 153.5421 311.4816 153.5421L304.5936 153.5421C304.3676 153.5421 304.1826 153.7281 304.1826 153.9531L304.1826 155.9621C304.1826 156.1871 304.3676 156.3711 304.5936 156.3711L310.2316 156.3711C310.4976 156.3711 310.7236 156.5971 310.7236 156.8651L310.7236 159.5911C310.7236 159.8571 310.4976 160.0831 310.2316 160.0831L304.5936 160.0831C304.3676 160.0831 304.1826 160.2671 304.1826 160.4941L304.1826 165.0641C304.1826 165.3311 303.9576 165.5571 303.6916 165.5571L300.5956 165.5571zM323.0878 157.5619C323.0878 159.9809 325.0348 161.9079 327.4348 161.9079 329.8948 161.9079 331.7798 159.9809 331.7798 157.5619 331.7798 155.1419 329.8948 153.2139 327.4348 153.2139 325.0348 153.2139 323.0878 155.1419 323.0878 157.5619M318.9468 157.5619C318.9468 152.9899 322.8198 149.2579 327.4348 149.2579 332.1078 149.2579 335.9218 152.9899 335.9218 157.5619 335.9218 162.1319 332.1078 165.8639 327.4348 165.8639 322.8198 165.8639 318.9468 162.1319 318.9468 157.5619M351.3612 153.2963L348.2662 153.2963C348.0402 153.2963 347.8552 153.4823 347.8552 153.7063L347.8552 157.1503C347.8552 157.3763 348.0402 157.5623 348.2662 157.5623L351.3612 157.5623C353.0012 157.5623 353.6172 156.5573 353.6172 155.4493 353.6172 154.2193 353.0012 153.2963 351.3612 153.2963L351.3612 153.2963zM343.7762 150.0583C343.7762 149.7913 344.0012 149.5663 344.2672 149.5663L351.5872 149.5663C355.6872 149.5663 357.5732 152.2313 357.5732 155.4083 357.5732 157.5203 356.6922 159.4883 354.7852 160.5333 354.5802 160.6363 354.5392 160.8823 354.6622 161.0673L357.5932 165.1473C357.7162 165.3313 357.5932 165.5573 357.3882 165.5573L353.4732 165.5573C353.1662 165.5573 352.8792 165.3933 352.6932 165.1473L350.1932 161.6003C350.0492 161.3953 349.7832 161.2723 349.5372 161.2723L348.2662 161.2723C348.0402 161.2723 347.8552 161.4563 347.8552 161.6823L347.8552 165.0643C347.8552 165.3313 347.6302 165.5573 347.3642 165.5573L344.2672 165.5573C344.0012 165.5573 343.7762 165.3313 343.7762 165.0643L343.7762 150.0583zM385.745 159.0375L382.055 159.0375C381.829 159.0375 381.644 159.2215 381.644 159.4475L381.644 161.4345C381.644 161.6615 381.829 161.8455 382.055 161.8455L385.745 161.8455C386.852 161.8455 387.263 161.2515 387.263 160.4105 387.263 159.5915 386.852 159.0375 385.745 159.0375L385.745 159.0375zM385.253 153.2965L382.055 153.2965C381.829 153.2965 381.644 153.4815 381.644 153.7065L381.644 155.4285C381.644 155.6545 381.829 155.8385 382.055 155.8385L385.027 155.8385C386.134 155.8385 386.544 155.3255 386.544 154.5675 386.544 153.8085 386.114 153.2965 385.253 153.2965L385.253 153.2965zM378.037 165.5575C377.77 165.5575 377.544 165.3315 377.544 165.0635L377.544 150.0585C377.544 149.7915 377.77 149.5655 378.037 149.5655L385.499 149.5655C388.943 149.5655 390.686 151.4315 390.686 153.9735 390.686 155.4285 390.07 156.4545 389.087 157.1305 388.943 157.2325 388.943 157.4175 389.107 157.4995 390.521 158.1545 391.403 159.3235 391.403 161.0465 391.403 163.6905 389.435 165.5575 386.196 165.5575L378.037 165.5575zM411.3935 157.5619C411.3935 156.8229 411.2095 156.1469 410.9025 155.5309 410.8205 155.3679 410.5745 155.3469 410.4515 155.4909L405.7355 161.3329C405.6135 161.4769 405.6945 161.7229 405.8785 161.7639 406.2475 161.8669 406.6375 161.9079 407.0475 161.9079 409.4885 161.9079 411.3935 159.9809 411.3935 157.5619M402.7015 157.5619C402.7015 158.2989 402.8655 158.9759 403.1935 159.5909 403.2765 159.7539 403.5215 159.7749 403.6445 159.6319L408.3395 153.8089C408.4615 153.6659 408.3805 153.4199 408.1965 153.3789 407.8275 153.2769 407.4375 153.2139 407.0475 153.2139 404.6275 153.2139 402.7015 155.1419 402.7015 157.5619M398.5605 157.5619C398.5605 152.9899 402.4145 149.2579 407.0475 149.2579 408.3805 149.2579 409.6515 149.5659 410.7785 150.1189 411.0045 150.2209 411.2505 150.1609 411.4145 149.9749L411.4555 149.9149C411.6395 149.7089 411.9265 149.5659 412.1935 149.5659L414.7145 149.5659C414.9195 149.5659 415.0225 149.7909 414.9005 149.9559L413.5465 151.6359C413.3825 151.8209 413.4035 152.0869 413.5465 152.2719 414.7765 153.7069 415.5355 155.5519 415.5355 157.5619 415.5355 162.1319 411.7015 165.8639 407.0475 165.8639 405.6945 165.8639 404.4445 165.5569 403.3165 165.0029 403.0905 164.9009 402.8445 164.9609 402.6815 165.1469L402.6395 165.2079C402.4555 165.4129 402.1685 165.5569 401.9015 165.5569L399.3795 165.5569C399.1745 165.5569 399.0725 165.3319 399.1965 165.1659L400.5285 163.5059C400.6925 163.3229 400.6715 163.0549 400.5285 162.8719 399.2985 161.4349 398.5605 159.5699 398.5605 157.5619M430.955 153.2963L427.859 153.2963C427.634 153.2963 427.448 153.4823 427.448 153.7063L427.448 157.1503C427.448 157.3763 427.634 157.5623 427.859 157.5623L430.955 157.5623C432.595 157.5623 433.21 156.5573 433.21 155.4493 433.21 154.2193 432.595 153.2963 430.955 153.2963L430.955 153.2963zM423.37 150.0583C423.37 149.7913 423.595 149.5663 423.86 149.5663L431.18 149.5663C435.281 149.5663 437.167 152.2313 437.167 155.4083 437.167 157.5203 436.285 159.4883 434.379 160.5333 434.174 160.6363 434.133 160.8823 434.255 161.0673L437.186 165.1473C437.31 165.3313 437.186 165.5573 436.981 165.5573L433.066 165.5573C432.759 165.5573 432.472 165.3933 432.287 165.1473L429.786 161.6003C429.643 161.3953 429.377 161.2723 429.13 161.2723L427.859 161.2723C427.634 161.2723 427.448 161.4563 427.448 161.6823L427.448 165.0643C427.448 165.3313 427.224 165.5573 426.957 165.5573L423.86 165.5573C423.595 165.5573 423.37 165.3313 423.37 165.0643L423.37 150.0583zM449.3046 165.0639C449.3046 165.3319 449.0796 165.5569 448.8146 165.5569L445.7176 165.5569C445.4506 165.5569 445.2266 165.3319 445.2266 165.0639L445.2266 150.0579C445.2266 149.7919 445.4506 149.5659 445.7176 149.5659L448.1996 149.5659C448.5066 149.5659 448.8146 149.7099 448.9976 149.9559L455.5786 158.1759C455.6596 158.2989 455.8256 158.2379 455.8256 158.0939L455.8256 150.0579C455.8256 149.7919 456.0506 149.5659 456.3166 149.5659L459.4126 149.5659C459.6796 149.5659 459.9046 149.7919 459.9046 150.0579L459.9046 165.0639C459.9046 165.3319 459.6796 165.5569 459.4126 165.5569L456.9326 165.5569C456.6236 165.5569 456.3166 165.4129 456.1326 165.1669L449.5516 156.9669C449.4696 156.8429 449.3046 156.9059 449.3046 157.0479L449.3046 165.0639z"/>
  </g>
</svg>
