<svg xmlns="http://www.w3.org/2000/svg" xmlns:xlink="http://www.w3.org/1999/xlink" viewBox="0 0 574 493">
  <defs>
    <polygon id="storm-logo-positive-a" points="0 .218 573.612 .218 573.612 131.761 0 131.761"/>
  </defs>
  <g fill="none" fill-rule="evenodd">
    <g transform="translate(0 189.864)">
      <mask id="storm-logo-positive-b" fill="#fff">
        <use xlink:href="#storm-logo-positive-a"/>
      </mask>
      <path fill="#69A1AC" d="M573.6122,113.2106 L573.0182,113.2106 C555.7012,113.2106 539.7482,120.1416 527.0732,131.7606 C513.4522,114.7726 494.1322,104.1886 472.7002,104.1886 C460.3552,104.1886 448.7152,107.7096 438.4612,113.9376 C421.8252,105.8386 402.3072,101.1746 381.4252,101.1746 C358.7162,101.1746 337.6142,106.6966 320.0982,116.1146 C305.8402,108.5456 289.2702,104.1886 271.5792,104.1886 C255.5152,104.1886 240.3772,107.7746 227.0642,114.1116 C207.1062,107.7316 184.9912,104.1886 161.7322,104.1886 C131.4112,104.1886 103.0252,110.2176 78.7982,120.6916 C70.2602,118.4466 61.2382,117.2366 51.9082,117.2366 C32.7872,117.2366 14.9632,122.3196 0.0002,131.0776 C9.4622,100.0296 38.3532,77.4316 72.5262,77.4316 C89.6022,77.4316 105.3352,83.0646 118.0092,92.5696 C127.5592,58.2426 159.0492,33.0476 196.4332,33.0476 C208.8222,33.0476 220.5502,35.8426 231.0692,40.7936 C251.2252,16.0386 281.9432,0.2176 316.3582,0.2176 C366.8812,0.2176 409.4372,34.2586 422.3322,80.6436 C439.4732,67.7926 460.7522,60.1576 483.8122,60.1576 C522.4962,60.1576 556.1632,81.5896 573.6122,113.2106" mask="url(#storm-logo-positive-b)"/>
    </g>
    <path fill="#100F2E" d="M286.1444,156.0922 C362.6924,156.0922 424.7474,126.8452 424.7474,90.7672 C424.7474,54.6892 362.6924,25.4432 286.1444,25.4432 C209.5964,25.4432 147.5414,54.6892 147.5414,90.7672 C147.5414,126.8452 209.5964,156.0922 286.1444,156.0922"/>
    <path fill="#100F2E" d="M286.1444,0.0004 L286.1444,0.0004 C313.6734,0.0004 337.4924,19.1634 343.3854,46.0554 L351.4694,82.9354 L220.8194,82.9354 L228.9034,46.0554 C234.7964,19.1634 258.6154,0.0004 286.1444,0.0004"/>
    <path fill="#1F1E3A" d="M356.581,91.9213 C356.581,96.3013 354.139,100.4383 349.76,104.1353 C338.449,113.7053 314.223,120.3293 286.144,120.3293 C258.066,120.3293 233.84,113.7053 222.529,104.1353 C218.15,100.4383 215.708,96.3013 215.708,91.9213 C215.708,85.7173 220.615,80.0173 228.955,75.3533 C241.739,68.1793 262.578,63.5133 286.144,63.5133 C309.711,63.5133 330.55,68.1793 343.334,75.3533 C351.674,80.0173 356.581,85.7173 356.581,91.9213"/>
    <path fill="#D4A181" d="M396.3446,291.852 C391.4596,291.302 386.4866,291.039 381.4256,291.039 C358.7166,291.039 337.6146,296.561 320.0986,305.979 C305.8396,298.41 289.2706,294.052 271.5786,294.052 C255.5156,294.052 240.3766,297.639 227.0646,303.976 C211.0226,298.85 193.5736,295.549 175.2656,294.47 C184.7936,256.205 218.3066,227.423 258.8826,224.937 L258.8826,203.878 C239.2986,194.571 225.2156,175.559 222.8836,153.07 L222.8386,153.07 C222.7296,153.047 222.6416,153.026 222.5316,153.004 C216.0836,151.926 211.1766,146.315 211.1766,139.559 L211.1766,123.65 C211.1766,116.894 216.0836,111.284 222.5316,110.206 L222.5316,103.207 C222.5316,93.217 224.8416,83.756 228.9556,75.35 C241.7406,68.177 262.5786,63.511 286.1466,63.511 C309.7126,63.511 330.5506,68.177 343.3356,75.35 C347.4496,83.756 349.7606,93.217 349.7606,103.207 L349.7606,110.206 C356.2076,111.284 361.1376,116.894 361.1376,123.65 L361.1376,139.559 C361.1376,146.336 356.2076,151.926 349.7606,153.004 C349.6726,153.026 349.5636,153.047 349.4526,153.07 L349.4306,153.07 C347.0756,175.559 332.9936,194.571 313.4086,203.878 L313.4086,224.937 C353.0836,227.357 385.9576,254.885 396.3446,291.852"/>
    <path fill="#BE9176" d="M313.4081,203.9174 L313.4081,213.0054 C305.1561,216.9224 295.9141,219.1224 286.1441,219.1224 C276.3751,219.1224 267.1331,216.9224 258.8811,213.0054 L258.8811,203.9174 C267.1331,207.8344 276.3751,210.0354 286.1441,210.0354 C295.9141,210.0354 305.1561,207.8344 313.4081,203.9174"/>
    <path fill="#FEE267" d="M396.3222,291.852 C391.4602,291.302 386.4652,291.039 381.4262,291.039 C358.7172,291.039 337.6142,296.561 320.0982,305.979 C305.8402,298.41 289.2702,294.052 271.5792,294.052 C255.5152,294.052 240.3772,297.639 227.0642,303.976 C211.0222,298.85 193.5732,295.549 175.2652,294.47 C182.4392,265.535 203.2772,241.99 230.5412,231.076 C230.4972,231.67 230.4742,232.243 230.4742,232.836 C230.4742,251.386 255.6472,266.437 286.7182,266.437 C317.7662,266.437 342.9392,251.386 342.9392,232.836 C342.9392,232.396 342.9392,231.978 342.9182,231.56 C368.7722,242.32 388.6862,264.523 396.3222,291.852"/>
    <path fill="#1F1E3A" d="M257.8173,167.934 C259.4163,178.903 271.4853,187.758 286.1463,187.758 C300.8403,187.758 312.9403,178.848 314.4743,166.943 C314.5883,166.488 314.2193,164.96 312.0103,164.96 L260.2813,164.96 C258.2523,164.96 257.6713,166.374 257.8173,167.934"/>
    <path fill="#FFF" d="M303.0507,164.7836 C301.7097,168.1496 298.4207,170.5286 294.5757,170.5286 L277.6867,170.5286 C273.8667,170.5286 270.5957,168.1146 269.2377,164.7836 L303.0507,164.7836 Z"/>
    <path fill="#FF4F6D" d="M298.8847,178.0434 C299.0717,178.5324 299.1757,179.0644 299.1757,179.6194 L299.1757,187.7584 C299.1757,194.6834 293.5617,200.2964 286.6367,200.2964 L285.6527,200.2964 C278.7277,200.2964 273.1137,194.6834 273.1137,187.7584 L273.1137,179.6194 C273.1137,179.0644 273.2167,178.5324 273.4047,178.0434 C273.2147,177.6894 273.1137,177.3154 273.1137,176.9294 C273.1137,174.7264 276.4107,172.9394 280.4787,172.9394 C282.7567,172.9394 284.7937,173.4994 286.1447,174.3794 C287.4947,173.4994 289.5317,172.9394 291.8107,172.9394 C295.8777,172.9394 299.1757,174.7264 299.1757,176.9294 C299.1757,177.3154 299.0737,177.6894 298.8847,178.0434"/>
    <path fill="#FFF" d="M330.2245,124.6918 C330.2245,132.2298 324.1145,138.3408 316.5765,138.3408 C309.0375,138.3408 302.9265,132.2298 302.9265,124.6918 C302.9265,117.1538 309.0375,111.0428 316.5765,111.0428 C324.1145,111.0428 330.2245,117.1538 330.2245,124.6918"/>
    <path fill="#3E3D4D" d="M323.4706,124.6918 C323.4706,128.4998 320.3836,131.5868 316.5756,131.5868 C312.7676,131.5868 309.6806,128.4998 309.6806,124.6918 C309.6806,120.8838 312.7676,117.7968 316.5756,117.7968 C320.3836,117.7968 323.4706,120.8838 323.4706,124.6918"/>
    <path fill="#5E4A38" d="M330.7206,110.3217 C326.2676,104.1057 314.0596,100.6197 303.5436,103.1817 C302.3236,103.4787 301.0916,102.7387 300.7916,101.5277 C300.4916,100.3177 301.2386,99.0947 302.4586,98.7987 C314.6706,95.8227 328.8076,99.8597 334.4286,107.7077 C335.1576,108.7227 334.9166,110.1327 333.8926,110.8537 C332.8676,111.5767 331.4486,111.3387 330.7206,110.3217"/>
    <path fill="#3E3D4D" d="M241.2216,128.9936 C243.3226,124.6636 248.0516,121.6446 253.5486,121.6446 C259.0276,121.6446 263.7416,124.6416 265.8536,128.9476 C266.4806,130.2266 265.5876,131.2736 264.6876,130.4986 C261.9006,128.0966 257.9406,126.5966 253.5486,126.5966 C249.2946,126.5966 245.4466,128.0036 242.6746,130.2756 C241.6616,131.1056 240.6076,130.2606 241.2216,128.9936"/>
    <path fill="#5E4A38" d="M241.0155,110.3217 C245.4675,104.1057 257.6755,100.6197 268.1915,103.1817 C269.4115,103.4787 270.6435,102.7387 270.9435,101.5277 C271.2435,100.3177 270.4965,99.0947 269.2775,98.7987 C257.0645,95.8227 242.9275,99.8597 237.3065,107.7077 C236.5785,108.7227 236.8195,110.1327 237.8425,110.8537 C238.8675,111.5767 240.2865,111.3387 241.0155,110.3217"/>
    <path fill="#B1876E" d="M228.2441,126.894 C228.8161,120.91 231.7431,115.606 236.0781,111.909 C236.5841,111.469 237.1121,111.05 237.6401,110.676 C239.4671,109.357 241.4911,108.323 243.6691,107.596 C245.9351,106.848 248.3561,106.43 250.8871,106.43 C260.1061,106.43 268.0281,111.887 271.6151,119.721 C272.6271,121.943 273.2871,124.341 273.5291,126.894 C273.5961,127.621 273.6391,128.347 273.6391,129.094 C273.6391,141.615 263.4511,151.759 250.8871,151.759 C238.3221,151.759 228.1341,141.615 228.1341,129.094 C228.1341,128.347 228.1781,127.621 228.2441,126.894 M344.1411,129.094 C344.1411,141.615 333.9541,151.759 321.4111,151.759 C308.8471,151.759 298.6581,141.615 298.6581,129.094 C298.6581,128.347 298.7021,127.621 298.7681,126.894 C299.0111,124.341 299.6711,121.943 300.6821,119.721 C304.2691,111.887 312.1911,106.43 321.4111,106.43 C323.5901,106.43 325.6801,106.738 327.6601,107.288 C330.0811,107.993 332.3251,109.049 334.3281,110.457 C334.9871,110.897 335.6031,111.381 336.1981,111.909 C340.5331,115.606 343.4601,120.91 344.0311,126.894 C344.0981,127.621 344.1411,128.347 344.1411,129.094 M356.7281,116.133 C356.2441,115.739 355.6281,115.497 354.9681,115.497 L345.8361,115.497 C345.5941,115.497 345.3301,115.54 345.1101,115.583 C343.8991,113.494 342.4261,111.58 340.7091,109.885 C337.6731,106.848 333.9091,104.516 329.7071,103.196 C327.0881,102.36 324.2941,101.897 321.4111,101.897 C319.2551,101.897 317.1641,102.139 315.1391,102.623 C307.1081,104.495 300.4631,109.885 296.8981,117.081 C294.5651,113.383 290.5601,110.963 285.9831,110.963 C281.5391,110.963 277.6001,113.274 275.2461,116.794 C271.6151,109.687 264.9701,104.383 256.9811,102.58 C255.0231,102.139 252.9771,101.897 250.8871,101.897 C247.5861,101.897 244.4391,102.492 241.5131,103.569 C241.4911,103.547 241.4911,103.569 241.4691,103.592 C237.7061,104.934 234.3401,107.113 231.5891,109.885 C229.8721,111.58 228.3981,113.494 227.1871,115.583 C226.9461,115.54 226.7041,115.497 226.4391,115.497 L217.3301,115.497 C216.6701,115.497 216.0541,115.739 215.5691,116.133 C214.9091,116.64 214.4911,117.433 214.4911,118.334 C214.4911,119.898 215.7671,121.151 217.3301,121.151 L224.7671,121.151 C224.2181,122.956 223.8431,124.87 223.6891,126.829 C223.6231,127.577 223.6011,128.325 223.6011,129.094 C223.6011,138.447 228.3321,146.698 235.5501,151.605 C239.9291,154.554 245.1871,156.291 250.8871,156.291 C253.9011,156.291 256.8061,155.808 259.5131,154.884 C270.3601,151.296 278.1941,141.109 278.1941,129.094 C278.1941,128.347 278.1721,127.621 278.1061,126.894 C277.9961,125.64 277.8201,124.429 277.5561,123.241 C277.6441,122.603 277.7981,121.965 277.9961,121.393 C278.1501,120.953 278.3261,120.557 278.5241,120.161 C279.9761,117.366 282.7931,115.497 285.9831,115.497 C289.1961,115.497 291.9911,117.366 293.4431,120.183 C293.7961,120.799 294.0371,121.481 294.2351,122.185 C294.4111,122.89 294.5001,123.616 294.5211,124.364 C294.3671,125.2 294.2581,126.036 294.1911,126.894 C294.1251,127.621 294.1031,128.369 294.1031,129.094 C294.1031,141.109 301.9151,151.296 312.7851,154.884 C315.4921,155.808 318.3961,156.291 321.4111,156.291 C327.0881,156.291 332.3481,154.554 336.7261,151.605 C343.9661,146.698 348.6961,138.447 348.6961,129.094 C348.6961,128.369 348.6751,127.665 348.6081,126.96 C348.4541,124.958 348.0801,122.999 347.5091,121.151 L354.9681,121.151 C356.5301,121.151 357.8061,119.898 357.8061,118.334 C357.8061,117.433 357.3891,116.64 356.7281,116.133"/>
    <path fill="#1F1E3A" d="M344.0312,126.894 C342.9312,138.381 333.2052,147.358 321.4112,147.358 C309.5942,147.358 299.8692,138.381 298.7682,126.894 C298.7022,126.167 298.6582,125.442 298.6582,124.694 C298.6582,123.022 298.8342,121.415 299.1862,119.852 C301.0122,111.469 307.4822,104.824 315.7782,102.711 C317.5822,102.271 319.4742,102.03 321.4112,102.03 C324.8442,102.03 328.0782,102.778 330.9832,104.142 C334.2182,105.637 337.0342,107.861 339.1902,110.611 C342.2932,114.461 344.1412,119.347 344.1412,124.694 C344.1412,125.442 344.0972,126.167 344.0312,126.894 M273.6392,124.694 C273.6392,125.442 273.5952,126.167 273.5292,126.894 C272.4282,138.381 262.7032,147.358 250.8862,147.358 C239.0702,147.358 229.3442,138.381 228.2442,126.894 C228.1772,126.167 228.1342,125.442 228.1342,124.694 C228.1342,119.347 229.9822,114.461 233.0852,110.611 C234.9772,108.213 237.3322,106.232 240.0392,104.757 C243.2732,103.019 246.9692,102.03 250.8862,102.03 C252.7352,102.03 254.5612,102.248 256.2772,102.667 C264.7052,104.713 271.2852,111.403 273.1112,119.852 C273.4642,121.415 273.6392,123.022 273.6392,124.694 M354.9682,111.095 L345.8362,111.095 C345.5932,111.095 345.3302,111.138 345.1102,111.183 C344.5822,110.258 343.9872,109.357 343.3272,108.498 C338.3542,101.831 330.3882,97.497 321.4112,97.497 C319.3862,97.497 317.4282,97.716 315.5362,98.134 C311.7292,98.948 308.2082,100.577 305.1932,102.822 C301.6952,105.374 298.8562,108.763 296.8982,112.679 C294.5652,108.982 290.5602,106.563 285.9832,106.563 C281.5392,106.563 277.6002,108.873 275.2462,112.394 C273.3532,108.675 270.6462,105.462 267.3242,102.998 C264.1992,100.621 260.5472,98.926 256.5632,98.09 C254.7372,97.694 252.8232,97.497 250.8862,97.497 C241.8862,97.497 233.9212,101.831 228.9702,108.52 C228.3102,109.378 227.7162,110.258 227.1872,111.183 C226.9462,111.138 226.7042,111.095 226.4392,111.095 L217.3302,111.095 C215.7672,111.095 214.4912,112.371 214.4912,113.933 C214.4912,114.176 214.5132,114.417 214.6012,114.638 C214.7332,115.232 215.0862,115.76 215.5692,116.133 C216.0532,116.53 216.6702,116.75 217.3302,116.75 L224.7672,116.75 C224.3272,118.159 224.0192,119.633 223.8212,121.151 C223.6672,122.317 223.6012,123.505 223.6012,124.694 C223.6012,125.42 223.6232,126.123 223.6892,126.829 C224.7672,140.844 236.5402,151.891 250.8862,151.891 C265.2122,151.891 276.9842,140.868 278.1062,126.894 C278.1722,126.167 278.1942,125.442 278.1942,124.694 C278.1942,123.572 278.1282,122.472 277.9962,121.393 C277.9522,120.953 277.8852,120.535 277.8202,120.139 C277.7322,119.699 277.6442,119.259 277.5562,118.84 C278.1502,114.417 281.7372,111.095 285.9832,111.095 C290.6042,111.095 294.4112,115.012 294.5212,119.963 C294.5212,120.029 294.5002,120.073 294.5002,120.139 C294.3672,120.822 294.2792,121.502 294.2352,122.185 C294.1472,123.022 294.1032,123.858 294.1032,124.694 C294.1032,125.442 294.1252,126.167 294.1912,126.894 C295.3132,140.868 307.0642,151.891 321.4112,151.891 C335.7142,151.891 347.4422,140.912 348.6082,126.96 C348.6752,126.212 348.6962,125.464 348.6962,124.694 C348.6962,123.505 348.6082,122.317 348.4542,121.151 C348.2572,119.633 347.9482,118.159 347.5092,116.75 L354.9682,116.75 C355.6282,116.75 356.2442,116.53 356.7282,116.133 C357.2122,115.76 357.5422,115.253 357.6962,114.66 C357.7622,114.439 357.8062,114.176 357.8062,113.933 C357.8062,112.371 356.5302,111.095 354.9682,111.095"/>
    <path fill="#B1876E" d="M272.6024,149.5268 C272.6024,154.5128 278.6654,158.5548 286.1444,158.5548 C293.6234,158.5548 299.6864,154.5128 299.6864,149.5268 L272.6024,149.5268 Z"/>
    <path fill="#191847" d="M210.8652 354.3578C212.5242 346.7118 213.3532 342.8848 215.0122 335.2178 215.3822 333.5108 214.2252 332.1378 212.4882 332.2238 184.0542 333.7178 155.6722 335.6148 127.2932 337.9118 125.5572 338.0578 123.7772 339.5888 123.4082 341.2508 121.7522 348.7128 120.9242 352.4408 119.2672 359.8808 118.8992 361.5398 120.0552 362.8238 121.7912 362.6908 132.4112 361.8758 137.7232 361.4968 148.3492 360.7948 149.8182 360.6978 150.7642 361.7778 150.4522 363.1918 148.4552 372.2418 147.4562 376.7588 145.4582 385.7788 139.7572 386.1058 136.9062 386.2778 131.2062 386.6388 128.2592 386.8248 125.3612 389.2628 124.7352 392.0738 124.1082 394.8858 125.9902 397.0128 128.9372 396.8358 134.6372 396.4918 137.4872 396.3288 143.1882 396.0188 149.7352 395.6628 153.0092 395.4968 159.5552 395.1828 161.7682 395.0778 163.1792 396.7238 162.7102 398.8538 162.2402 400.9848 160.0652 402.7898 157.8532 402.8898 151.3052 403.1868 148.0322 403.3468 141.4862 403.6888 138.9222 415.2388 137.6392 421.0028 135.0752 432.5028 134.7062 434.1548 135.8602 435.4918 137.5952 435.4208 145.7112 435.0858 149.7692 434.9338 157.8872 434.6658 159.6222 434.6078 161.4032 433.1518 161.7722 431.4858 166.9202 408.2028 172.0482 384.9178 177.1572 361.6268 177.4692 360.2008 178.9272 358.9688 180.3962 358.8908 191.0272 358.3298 196.3442 358.0778 206.9792 357.6308 208.7162 357.5578 210.4972 356.0588 210.8652 354.3578M71.4609 378.8696C60.0219 376.0846 55.6319 374.5336 56.5099 370.6596 57.2459 367.4096 61.6069 363.6406 70.6689 362.7376 79.4649 361.8606 83.7589 365.2336 84.3469 369.1906 84.6659 371.3456 85.5799 372.4116 88.1139 372.1876 95.5259 371.5366 99.2329 371.2236 106.6489 370.6276 108.5189 370.4766 110.6639 368.5516 110.9119 366.7966 113.8759 345.8376 92.1859 339.2136 75.0359 341.0276 65.3579 342.0526 56.3679 344.9786 48.8379 349.3096 39.1619 350.4236 34.3259 351.0046 24.6579 352.2146 21.7199 352.5816 18.8299 355.1026 18.2049 357.8356 17.5799 360.5676 19.4559 362.4846 22.3949 362.1286 34.6049 360.6376 40.7129 359.9316 52.9349 358.5946 55.1419 358.3516 56.5509 359.8396 56.0819 361.9116 55.6119 363.9836 53.4419 365.8506 51.2359 366.0886 42.7999 366.9916 38.5839 367.4616 30.1529 368.4376 29.0239 370.7716 28.0979 373.2346 27.5629 375.7406 23.5559 394.5226 43.9259 401.0586 58.3619 404.4316 69.8589 407.1176 74.6129 409.4476 73.6789 413.5756 73.0269 416.4546 69.1179 419.8056 59.1259 420.6176 49.8019 421.3766 45.0539 418.8166 43.8949 415.8326 42.9479 413.3986 42.3649 412.8126 39.3029 413.0986 32.1129 413.7696 28.5199 414.1196 21.3339 414.8436 19.4709 415.0316 17.2859 416.9766 17.0829 418.6406 14.7019 438.1286 39.4239 443.7796 54.7609 442.0816 73.0349 440.0576 97.6659 430.0096 102.6549 410.1266 107.2749 391.7146 85.1639 382.2056 71.4609 378.8696M552.7744 339.0756C544.6314 338.3436 540.5584 337.9956 532.4104 337.3306 530.5454 337.1786 528.4274 338.3166 527.1564 339.9616 514.2164 358.5746 501.2294 377.1526 488.1534 395.6706 487.3924 396.7536 486.0584 396.6396 485.7534 395.4696 480.5184 375.6536 475.2614 355.8436 469.9814 336.0396 469.3874 334.2936 467.7764 332.9236 465.9094 332.8216 457.7454 332.3806 453.6634 332.1776 445.4964 331.8036 443.7604 331.7226 441.9804 333.1956 441.6124 335.0136 436.7404 359.0116 431.8504 383.0056 426.9434 406.9966 421.0864 406.6156 418.1584 406.4346 412.2994 406.0886 409.3504 405.9146 406.4514 408.2476 405.8244 411.2906 405.1974 414.3316 407.0804 416.9376 410.0304 417.1216 415.8874 417.4846 418.8164 417.6756 424.6744 418.0736 431.0654 418.5086 434.2604 418.7356 440.6494 419.2116 442.8614 419.3776 444.2714 421.3836 443.8014 423.6866 443.3324 425.9906 441.1594 427.7166 438.9474 427.5466 432.5584 427.0546 429.3634 426.8206 422.9714 426.3716 422.1214 430.5156 421.6954 432.5886 420.8434 436.7296 420.4744 438.5226 421.6314 440.1506 423.3684 440.2806 431.4314 440.8886 435.4614 441.2086 443.5224 441.8826 445.2574 442.0286 447.0364 440.6236 447.4044 438.8156 450.7804 422.2646 454.1454 405.7116 457.5004 389.1566 457.6424 388.4556 458.6324 388.2416 458.7574 388.9606 462.3944 402.7626 466.0074 416.5706 469.6194 430.3786 470.2114 432.1426 471.8254 433.5726 473.6924 433.7456 478.1204 434.1536 480.3334 434.3616 484.7584 434.7906 486.6254 434.9716 488.7474 433.8886 490.0194 432.2906 499.0564 419.4836 508.0544 406.6506 517.0144 393.7916 517.4224 393.1046 518.2984 393.4776 518.1564 394.1896 514.8064 411.0186 511.4464 427.8466 508.0764 444.6716 507.7084 446.5086 508.8624 448.2226 510.5944 448.4166 518.6414 449.3116 522.6654 449.7756 530.7074 450.7366 532.4384 450.9446 534.2124 449.5546 534.5804 447.7046 541.5214 412.7526 548.4224 377.7916 555.2894 342.8246 555.6564 340.9506 554.5054 339.2316 552.7744 339.0756"/>
    <path fill="#191847" d="M387.1103 381.8832C384.7103 383.0042 381.8113 383.6082 378.3473 383.4772 370.2803 383.1732 366.2463 383.0382 358.1753 382.8012 356.7063 382.7592 355.7583 381.5002 356.0713 380.0012 357.9803 370.8542 358.9333 366.2732 360.8423 357.0972 361.1543 355.5952 362.6123 354.3902 364.0833 354.4212 372.1523 354.5952 376.1863 354.6972 384.2543 354.9392 391.5953 355.1562 395.1803 358.2362 396.1533 362.8212 391.2883 362.6402 388.8553 362.5552 383.9893 362.3992 381.0383 362.3032 378.1383 364.6892 377.5103 367.7162 376.8833 370.7442 378.7663 373.2752 381.7173 373.3802 386.9173 373.5642 389.5163 373.6632 394.7153 373.8742 401.7703 374.1612 405.2973 374.3182 412.3513 374.6542 414.5633 374.7602 415.9753 376.7102 415.5063 379.0032 415.0353 381.2962 412.8613 383.0622 410.6483 382.9492 401.2353 382.4782 396.5273 382.2642 387.1103 381.8832M394.9993 407.9022C394.4523 406.6222 395.0603 404.9892 396.5373 404.3732 410.0363 398.0922 418.7813 384.9652 421.7933 370.7792 426.1853 350.0922 414.2103 328.6172 390.8893 329.9132 374.9963 329.5392 359.0963 329.3222 343.1983 329.2602 341.4603 329.2542 339.6773 330.7462 339.3083 332.5132 332.4153 365.4802 325.4843 398.4362 318.5153 431.3872 318.1453 433.1302 319.3033 434.6532 321.0423 434.7112 329.1143 434.9822 333.1493 435.1332 341.2203 435.4712 342.9593 435.5442 344.7393 434.1202 345.1083 432.3642 346.9833 423.4432 347.9203 418.9762 349.7953 410.0282 350.1073 408.5352 351.5653 407.3562 353.0363 407.4092 356.3483 407.5292 358.0063 407.5922 361.3183 407.7232 362.9213 407.7872 364.4883 408.6742 365.1393 410.0752 369.6943 419.7722 371.9713 424.6462 376.5263 434.4422 377.3883 436.1452 379.0313 437.3412 381.0333 437.4562 391.2383 438.0502 396.3403 438.3732 406.5433 439.0712 407.8783 439.1622 408.9923 437.7042 408.4463 436.4112 403.0673 424.9392 400.3783 419.2372 394.9993 407.9022M256.4618 409.9018C241.4308 410.1898 230.6508 396.9198 234.1518 382.2928 237.9168 366.5638 252.3048 354.3928 268.5068 353.6998 283.9538 353.0408 294.2768 366.9338 290.8188 381.7488 287.0988 397.6908 272.8268 409.5888 256.4618 409.9018M273.9898 327.9688C243.6188 329.0838 213.8028 353.4628 207.1628 383.0128 205.2028 391.7338 205.7618 400.0098 208.2188 407.2148 204.2188 407.3048 202.2188 407.3548 198.2188 407.4608 195.2678 407.5388 192.3668 409.9288 191.7388 412.7918 191.1118 415.6528 192.9958 417.9098 195.9468 417.8388 202.9758 417.6738 206.4888 417.6048 213.5188 417.4888 218.7478 417.4028 221.3628 417.3678 226.5928 417.3108 228.8078 417.2848 230.2208 419.0278 229.7498 421.1968 229.2788 423.3648 227.1038 425.1338 224.8898 425.1538 223.2688 425.1688 222.4578 425.1758 220.8358 425.1928 228.6048 431.4878 239.0378 435.3188 250.9798 435.3388 281.6858 435.3888 311.1738 412.1748 317.8158 381.9488 324.1168 353.2718 303.8068 326.8748 273.9898 327.9688"/>
    <path fill="#89C5CC" d="M106.7226 492.1059C106.6196 492.3719 106.3336 492.5569 106.0466 492.5569L102.9716 492.5569C102.6836 492.5569 102.3976 492.3719 102.2946 492.1059L96.2056 477.0159C96.1226 476.8119 96.2676 476.5659 96.5136 476.5659L99.9976 476.5659C100.2856 476.5659 100.5516 476.7509 100.6546 477.0159L104.3666 486.9189C104.4066 487.0619 104.6116 487.0619 104.6526 486.9189L108.3836 477.0159C108.4866 476.7509 108.7526 476.5659 109.0386 476.5659L112.5246 476.5659C112.7706 476.5659 112.9136 476.8119 112.8316 477.0159L106.7226 492.1059zM120.8915 492.5571C120.6255 492.5571 120.3995 492.3311 120.3995 492.0641L120.3995 477.0581C120.3995 476.7911 120.6255 476.5661 120.8915 476.5661L132.1885 476.5661C132.4545 476.5661 132.6795 476.7911 132.6795 477.0581L132.6795 480.0501C132.6795 480.3171 132.4545 480.5421 132.1885 480.5421L124.9095 480.5421C124.6845 480.5421 124.4985 480.7281 124.4985 480.9531L124.4985 482.4281C124.4985 482.6551 124.6845 482.8381 124.9095 482.8381L130.7325 482.8381C130.9985 482.8381 131.2245 483.0651 131.2245 483.3301L131.2245 486.0571C131.2245 486.3241 130.9985 486.5501 130.7325 486.5501L124.9095 486.5501C124.6845 486.5501 124.4985 486.7351 124.4985 486.9591L124.4985 488.1891C124.4985 488.4151 124.6845 488.6001 124.9095 488.6001L132.1885 488.6001C132.4545 488.6001 132.6795 488.8261 132.6795 489.0911L132.6795 492.0641C132.6795 492.3311 132.4545 492.5571 132.1885 492.5571L120.8915 492.5571zM147.8329 477.058C147.8329 476.791 148.0589 476.566 148.3239 476.566L151.4209 476.566C151.6869 476.566 151.9119 476.791 151.9119 477.058L151.9119 486.632C151.9119 490.917 149.1449 492.864 145.8239 492.864 142.6249 492.864 139.6929 490.917 139.6929 486.632L139.6929 485.73C139.6929 485.462 139.9189 485.238 140.1859 485.238L143.3019 485.238C143.5679 485.238 143.7929 485.462 143.7929 485.73L143.7929 486.57C143.7929 488.477 144.7579 488.908 145.8239 488.908 147.0129 488.908 147.8329 488.477 147.8329 486.57L147.8329 477.058zM167.9667 480.2963L164.8707 480.2963C164.6457 480.2963 164.4597 480.4823 164.4597 480.7063L164.4597 484.1503C164.4597 484.3763 164.6457 484.5623 164.8707 484.5623L167.9667 484.5623C169.6067 484.5623 170.2227 483.5573 170.2227 482.4493 170.2227 481.2193 169.6067 480.2963 167.9667 480.2963L167.9667 480.2963zM160.3817 477.0583C160.3817 476.7913 160.6067 476.5663 160.8727 476.5663L168.1917 476.5663C172.2927 476.5663 174.1787 479.2313 174.1787 482.4083 174.1787 484.5203 173.2977 486.4883 171.3907 487.5333 171.1857 487.6363 171.1447 487.8823 171.2667 488.0673L174.1977 492.1473C174.3217 492.3313 174.1977 492.5573 173.9927 492.5573L170.0777 492.5573C169.7717 492.5573 169.4837 492.3933 169.2987 492.1473L166.7987 488.6003C166.6547 488.3953 166.3887 488.2723 166.1427 488.2723L164.8707 488.2723C164.6457 488.2723 164.4597 488.4563 164.4597 488.6823L164.4597 492.0643C164.4597 492.3313 164.2357 492.5573 163.9687 492.5573L160.8727 492.5573C160.6067 492.5573 160.3817 492.3313 160.3817 492.0643L160.3817 477.0583zM192.6327 477.058C192.6327 476.791 192.8577 476.566 193.1237 476.566L196.2197 476.566C196.4867 476.566 196.7107 476.791 196.7107 477.058L196.7107 485.565C196.7107 489.686 194.1277 492.864 189.3527 492.864 184.5547 492.864 182.0117 489.686 182.0117 485.565L182.0117 477.058C182.0117 476.791 182.2377 476.566 182.5047 476.566L185.6207 476.566C185.8867 476.566 186.1117 476.791 186.1117 477.058L186.1117 485.32C186.1117 487.636 187.2197 488.908 189.3527 488.908 191.5037 488.908 192.6327 487.636 192.6327 485.32L192.6327 477.058zM212.2128 480.5424L209.6088 480.5424C209.3838 480.5424 209.1978 480.7284 209.1978 480.9524L209.1978 488.1884C209.1978 488.4154 209.3838 488.6004 209.6088 488.6004L212.2128 488.6004C214.6508 488.6004 215.9438 486.9594 215.9438 484.5624 215.9438 482.1624 214.6508 480.5424 212.2128 480.5424L212.2128 480.5424zM205.5908 492.5574C205.3238 492.5574 205.0988 492.3314 205.0988 492.0634L205.0988 477.0584C205.0988 476.7914 205.3238 476.5654 205.5908 476.5654L212.5198 476.5654C217.5228 476.5654 220.0848 480.2144 220.0848 484.5624 220.0848 488.9284 217.5228 492.5574 212.5198 492.5574L205.5908 492.5574zM227.4062 488.3334C227.3862 488.0464 227.6522 487.7594 227.9392 487.7594L230.7082 487.7594C231.1782 487.7594 231.2812 487.8614 231.5272 488.2934 231.8152 488.8254 232.6542 489.3174 234.0912 489.3174 235.6282 489.3174 236.1202 488.8054 236.1202 488.3334 236.1202 487.6564 235.3202 487.2474 233.3932 486.5914 230.8512 485.7504 227.5092 484.5204 227.5092 481.2194 227.5092 478.1644 230.1132 476.2584 233.7612 476.2584 237.4932 476.2584 240.0972 478.2064 240.3022 481.0754 240.3222 481.3624 240.0552 481.6494 239.7682 481.6494L236.9202 481.6494C236.5292 481.6494 236.3452 481.4654 236.2222 481.0964 235.9762 480.4204 235.1972 479.8044 233.8442 479.8044 232.4502 479.8044 231.8962 480.3574 231.8962 480.8914 231.8962 481.5264 232.6352 481.8544 234.5422 482.5114 236.7562 483.2894 240.5272 484.6024 240.5272 488.1074 240.5272 491.2244 237.8222 492.8634 234.1722 492.8634 230.5442 492.8634 227.6932 491.2644 227.4062 488.3334M248.5048 477.058C248.5048 476.791 248.7298 476.566 248.9958 476.566L252.1118 476.566C252.3788 476.566 252.6048 476.791 252.6048 477.058L252.6048 492.064C252.6048 492.331 252.3788 492.557 252.1118 492.557L248.9958 492.557C248.7298 492.557 248.5048 492.331 248.5048 492.064L248.5048 477.058zM268.9862 486.6322C268.7192 486.6322 268.4942 486.4052 268.4942 486.1402L268.4942 483.7202C268.4942 483.4542 268.7192 483.2282 268.9862 483.2282L275.7112 483.2282C275.9772 483.2282 276.2032 483.4542 276.2032 483.7202L276.2032 492.0642C276.2032 492.3312 275.9772 492.5572 275.7112 492.5572L273.4762 492.5572C273.2092 492.5572 272.9842 492.3312 272.9842 492.0642L272.9842 491.4692C272.9842 491.3472 272.8202 491.2852 272.7382 491.3882 271.8972 492.3522 270.4222 492.8632 268.9452 492.8632 264.3122 492.8632 260.4582 489.1322 260.4582 484.5622 260.4582 479.9892 264.3122 476.2582 268.9452 476.2582 271.5082 476.2582 273.8452 477.4262 275.4032 479.2102 275.5672 479.4152 275.5262 479.7232 275.3212 479.8662L272.7992 481.5682C272.5532 481.7332 272.2662 481.7112 272.0412 481.4862 271.2622 480.7062 270.1552 480.2142 268.9452 480.2142 266.5262 480.2142 264.5992 482.1422 264.5992 484.5622 264.5992 486.9812 266.5262 488.9072 268.9452 488.9072 270.2982 488.9072 271.4872 488.2512 272.2462 487.2472 272.3062 487.1642 272.3692 487.0002 272.3692 486.8992L272.3692 486.8372C272.3692 486.7352 272.2662 486.6322 272.1652 486.6322L268.9862 486.6322zM283.6474 480.5424C283.3804 480.5424 283.1544 480.3164 283.1544 480.0504L283.1544 477.0584C283.1544 476.7914 283.3804 476.5654 283.6474 476.5654L296.7264 476.5654C296.9934 476.5654 297.2184 476.7914 297.2184 477.0584L297.2184 480.0504C297.2184 480.3164 296.9934 480.5424 296.7264 480.5424L292.6464 480.5424C292.4214 480.5424 292.2374 480.7284 292.2374 480.9524L292.2374 492.0634C292.2374 492.3314 292.0114 492.5574 291.7444 492.5574L288.6284 492.5574C288.3624 492.5574 288.1364 492.3314 288.1364 492.0634L288.1364 480.9524C288.1364 480.7284 287.9524 480.5424 287.7264 480.5424L283.6474 480.5424zM316.5956 492.5571C316.3286 492.5571 316.1046 492.3311 316.1046 492.0641L316.1046 477.0581C316.1046 476.7911 316.3286 476.5661 316.5956 476.5661L327.4816 476.5661C327.7476 476.5661 327.9746 476.7911 327.9746 477.0581L327.9746 480.0501C327.9746 480.3171 327.7476 480.5421 327.4816 480.5421L320.5936 480.5421C320.3676 480.5421 320.1826 480.7281 320.1826 480.9531L320.1826 482.9621C320.1826 483.1871 320.3676 483.3711 320.5936 483.3711L326.2316 483.3711C326.4976 483.3711 326.7236 483.5971 326.7236 483.8651L326.7236 486.5911C326.7236 486.8571 326.4976 487.0831 326.2316 487.0831L320.5936 487.0831C320.3676 487.0831 320.1826 487.2671 320.1826 487.4941L320.1826 492.0641C320.1826 492.3311 319.9576 492.5571 319.6916 492.5571L316.5956 492.5571zM339.0878 484.5619C339.0878 486.9809 341.0348 488.9079 343.4348 488.9079 345.8948 488.9079 347.7798 486.9809 347.7798 484.5619 347.7798 482.1419 345.8948 480.2139 343.4348 480.2139 341.0348 480.2139 339.0878 482.1419 339.0878 484.5619M334.9468 484.5619C334.9468 479.9899 338.8198 476.2579 343.4348 476.2579 348.1078 476.2579 351.9218 479.9899 351.9218 484.5619 351.9218 489.1319 348.1078 492.8639 343.4348 492.8639 338.8198 492.8639 334.9468 489.1319 334.9468 484.5619M367.3612 480.2963L364.2662 480.2963C364.0402 480.2963 363.8552 480.4823 363.8552 480.7063L363.8552 484.1503C363.8552 484.3763 364.0402 484.5623 364.2662 484.5623L367.3612 484.5623C369.0012 484.5623 369.6172 483.5573 369.6172 482.4493 369.6172 481.2193 369.0012 480.2963 367.3612 480.2963L367.3612 480.2963zM359.7762 477.0583C359.7762 476.7913 360.0012 476.5663 360.2672 476.5663L367.5872 476.5663C371.6872 476.5663 373.5732 479.2313 373.5732 482.4083 373.5732 484.5203 372.6922 486.4883 370.7852 487.5333 370.5802 487.6363 370.5392 487.8823 370.6622 488.0673L373.5932 492.1473C373.7162 492.3313 373.5932 492.5573 373.3882 492.5573L369.4732 492.5573C369.1662 492.5573 368.8792 492.3933 368.6932 492.1473L366.1932 488.6003C366.0492 488.3953 365.7832 488.2723 365.5372 488.2723L364.2662 488.2723C364.0402 488.2723 363.8552 488.4563 363.8552 488.6823L363.8552 492.0643C363.8552 492.3313 363.6302 492.5573 363.3642 492.5573L360.2672 492.5573C360.0012 492.5573 359.7762 492.3313 359.7762 492.0643L359.7762 477.0583zM401.745 486.0375L398.055 486.0375C397.829 486.0375 397.644 486.2215 397.644 486.4475L397.644 488.4345C397.644 488.6615 397.829 488.8455 398.055 488.8455L401.745 488.8455C402.852 488.8455 403.263 488.2515 403.263 487.4105 403.263 486.5915 402.852 486.0375 401.745 486.0375L401.745 486.0375zM401.253 480.2965L398.055 480.2965C397.829 480.2965 397.644 480.4815 397.644 480.7065L397.644 482.4285C397.644 482.6545 397.829 482.8385 398.055 482.8385L401.027 482.8385C402.134 482.8385 402.544 482.3255 402.544 481.5675 402.544 480.8085 402.114 480.2965 401.253 480.2965L401.253 480.2965zM394.037 492.5575C393.77 492.5575 393.544 492.3315 393.544 492.0635L393.544 477.0585C393.544 476.7915 393.77 476.5655 394.037 476.5655L401.499 476.5655C404.943 476.5655 406.686 478.4315 406.686 480.9735 406.686 482.4285 406.07 483.4545 405.087 484.1305 404.943 484.2325 404.943 484.4175 405.107 484.4995 406.521 485.1545 407.403 486.3235 407.403 488.0465 407.403 490.6905 405.435 492.5575 402.196 492.5575L394.037 492.5575zM427.3935 484.5619C427.3935 483.8229 427.2095 483.1469 426.9025 482.5309 426.8205 482.3679 426.5745 482.3469 426.4515 482.4909L421.7355 488.3329C421.6135 488.4769 421.6945 488.7229 421.8785 488.7639 422.2475 488.8669 422.6375 488.9079 423.0475 488.9079 425.4885 488.9079 427.3935 486.9809 427.3935 484.5619M418.7015 484.5619C418.7015 485.2989 418.8655 485.9759 419.1935 486.5909 419.2765 486.7539 419.5215 486.7749 419.6445 486.6319L424.3395 480.8089C424.4615 480.6659 424.3805 480.4199 424.1965 480.3789 423.8275 480.2769 423.4375 480.2139 423.0475 480.2139 420.6275 480.2139 418.7015 482.1419 418.7015 484.5619M414.5605 484.5619C414.5605 479.9899 418.4145 476.2579 423.0475 476.2579 424.3805 476.2579 425.6515 476.5659 426.7785 477.1189 427.0045 477.2209 427.2505 477.1609 427.4145 476.9749L427.4555 476.9149C427.6395 476.7089 427.9265 476.5659 428.1935 476.5659L430.7145 476.5659C430.9195 476.5659 431.0225 476.7909 430.9005 476.9559L429.5465 478.6359C429.3825 478.8209 429.4035 479.0869 429.5465 479.2719 430.7765 480.7069 431.5355 482.5519 431.5355 484.5619 431.5355 489.1319 427.7015 492.8639 423.0475 492.8639 421.6945 492.8639 420.4445 492.5569 419.3165 492.0029 419.0905 491.9009 418.8445 491.9609 418.6815 492.1469L418.6395 492.2079C418.4555 492.4129 418.1685 492.5569 417.9015 492.5569L415.3795 492.5569C415.1745 492.5569 415.0725 492.3319 415.1965 492.1659L416.5285 490.5059C416.6925 490.3229 416.6715 490.0549 416.5285 489.8719 415.2985 488.4349 414.5605 486.5699 414.5605 484.5619M446.955 480.2963L443.859 480.2963C443.634 480.2963 443.448 480.4823 443.448 480.7063L443.448 484.1503C443.448 484.3763 443.634 484.5623 443.859 484.5623L446.955 484.5623C448.595 484.5623 449.21 483.5573 449.21 482.4493 449.21 481.2193 448.595 480.2963 446.955 480.2963L446.955 480.2963zM439.37 477.0583C439.37 476.7913 439.595 476.5663 439.86 476.5663L447.18 476.5663C451.281 476.5663 453.167 479.2313 453.167 482.4083 453.167 484.5203 452.285 486.4883 450.379 487.5333 450.174 487.6363 450.133 487.8823 450.255 488.0673L453.186 492.1473C453.31 492.3313 453.186 492.5573 452.981 492.5573L449.066 492.5573C448.759 492.5573 448.472 492.3933 448.287 492.1473L445.786 488.6003C445.643 488.3953 445.377 488.2723 445.13 488.2723L443.859 488.2723C443.634 488.2723 443.448 488.4563 443.448 488.6823L443.448 492.0643C443.448 492.3313 443.224 492.5573 442.957 492.5573L439.86 492.5573C439.595 492.5573 439.37 492.3313 439.37 492.0643L439.37 477.0583zM465.3046 492.0639C465.3046 492.3319 465.0796 492.5569 464.8146 492.5569L461.7176 492.5569C461.4506 492.5569 461.2266 492.3319 461.2266 492.0639L461.2266 477.0579C461.2266 476.7919 461.4506 476.5659 461.7176 476.5659L464.1996 476.5659C464.5066 476.5659 464.8146 476.7099 464.9976 476.9559L471.5786 485.1759C471.6596 485.2989 471.8256 485.2379 471.8256 485.0939L471.8256 477.0579C471.8256 476.7919 472.0506 476.5659 472.3166 476.5659L475.4126 476.5659C475.6796 476.5659 475.9046 476.7919 475.9046 477.0579L475.9046 492.0639C475.9046 492.3319 475.6796 492.5569 475.4126 492.5569L472.9326 492.5569C472.6236 492.5569 472.3166 492.4129 472.1326 492.1669L465.5516 483.9669C465.4696 483.8429 465.3046 483.9059 465.3046 484.0479L465.3046 492.0639z"/>
  </g>
</svg>
